<?xml version="1.0" encoding="UTF-8"?>
<svg width="206px" height="68px" viewBox="0 0 206 68" version="1.1" xmlns="http://www.w3.org/2000/svg" xmlns:xlink="http://www.w3.org/1999/xlink">
    <!-- Generator: Sketch 43.2 (39069) - http://www.bohemiancoding.com/sketch -->
    <title>Shape</title>
    <desc>Created with Sketch.</desc>
    <defs></defs>
    <g id="Client" stroke="none" stroke-width="1" fill="none" fill-rule="evenodd">
        <g id="Oefeningen-Copy" transform="translate(-983.000000, -740.000000)" fill-rule="nonzero" fill="#818C98">
            <g id="Main" transform="translate(-42.000000, 0.000000)">
                <g id="Opdrachten" transform="translate(82.000000, 40.000000)">
                    <g id="Dag">
                        <g id="Opdracht-Copy" transform="translate(0.000000, 554.000000)">
                            <g id="pelvic-curl-posture" transform="translate(943.000000, 146.000000)">
                                <path d="M167.315652,52.4181449 C167.650648,52.4344058 167.981719,52.4427826 168.313771,52.4427826 C179.005662,52.4427826 187.956852,43.9767826 188.484114,33.1327536 C188.74799,27.7168986 186.896933,22.5217971 183.270843,18.5048696 C179.645243,14.487942 174.679662,12.1296232 169.288838,11.8650145 C158.168271,11.3244638 148.664805,19.9693333 148.120376,31.149913 C147.85699,36.5657681 149.708048,41.7603768 153.333648,45.7777971 C156.959248,49.7952174 161.924829,52.1535362 167.315652,52.4181449 Z M156.938648,31.5835362 C157.235386,25.4773333 162.275519,20.7109275 168.296114,20.7109275 C168.482495,20.7109275 168.669857,20.7158551 168.8582,20.7247246 C171.893757,20.874029 174.689962,22.2015072 176.731324,24.4632464 C178.772686,26.7249855 179.814948,29.649971 179.666333,32.7001159 C179.360276,38.9955362 174.014576,43.854087 167.746781,43.5594203 C164.711714,43.4101159 161.915019,42.0826377 159.874148,39.8204058 C157.832786,37.5586667 156.790033,34.6331884 156.938648,31.5835362 Z M17.1254667,43.6752174 C17.1254667,41.2257391 19.1015952,39.2404348 21.5397524,39.2404348 L28.6163429,39.2404348 L28.6163429,4.58901449 C28.6094762,4.30075362 28.6310571,4.00904348 28.6825571,3.71831884 C28.7737857,3.19501449 28.9557524,2.70373913 29.211781,2.26124638 C29.5408905,1.69014493 29.9847714,1.21315942 30.5032048,0.850985507 C31.0201667,0.487826087 31.6180571,0.23257971 32.2645048,0.118753623 C32.7672429,0.0290724638 33.2900905,0.026115942 33.8109762,0.121710145 C34.0993762,0.172956522 34.3784571,0.253275362 34.6447857,0.358231884 L140.865743,39.4764638 C141.141881,39.5705797 141.406248,39.6922899 141.654429,39.8366667 C142.221419,40.1658261 142.695219,40.6102899 143.05621,41.1286667 C143.422105,41.651971 143.678624,42.2575652 143.790943,42.9129275 C143.878248,43.4111014 143.88119,43.928 143.789962,44.4429275 C143.698733,44.9682029 143.515295,45.461942 143.257305,45.9068986 C142.930157,46.472087 142.4902,46.9451304 141.977162,47.3063188 C141.455295,47.6744058 140.850048,47.9326087 140.195752,48.0454493 C139.948552,48.0888116 139.695957,48.1109855 139.4414,48.1109855 C139.407557,48.1109855 139.373714,48.1109855 139.339871,48.11 L71.4834714,48.11 C69.0453143,48.11 67.0691857,46.1246957 67.0691857,43.6752174 C67.0691857,41.2257391 69.0453143,39.2404348 71.4834714,39.2404348 L114.574257,39.2404348 L37.4449143,10.8356522 L37.4449143,43.5431594 C37.4463857,43.5870145 37.4468762,43.6308696 37.4468762,43.6752174 C37.4468762,45.422029 36.4414,46.9328116 34.9807619,47.6556812 C34.3676667,47.9597101 33.6741333,48.1302029 32.9394,48.11 L21.5397524,48.11 C19.1015952,48.11 17.1254667,46.1242029 17.1254667,43.6752174 Z M205.635086,63.1478551 C205.635086,65.5973333 203.658957,67.5826377 201.2208,67.5826377 L4.41428571,67.5826377 C1.97612857,67.5826377 0,65.5973333 0,63.1478551 C0,60.6983768 1.97612857,58.7130725 4.41428571,58.7130725 L201.2208,58.7130725 C203.658957,58.7130725 205.635086,60.6988696 205.635086,63.1478551 Z" id="Shape"></path>
                            </g>
                        </g>
                    </g>
                </g>
            </g>
        </g>
    </g>
</svg>