<?xml version="1.0" encoding="UTF-8"?>
<svg width="131px" height="131px" viewBox="0 0 131 131" version="1.1" xmlns="http://www.w3.org/2000/svg" xmlns:xlink="http://www.w3.org/1999/xlink">
    <!-- Generator: Sketch 43.2 (39069) - http://www.bohemiancoding.com/sketch -->
    <title>settings</title>
    <desc>Created with Sketch.</desc>
    <defs></defs>
    <g id="Client" stroke="none" stroke-width="1" fill="none" fill-rule="evenodd">
        <g id="Oefeningen-Copy" transform="translate(-874.000000, -2334.000000)" stroke-width="9" stroke="#818C98">
            <g id="Nav" transform="translate(820.000000, 1940.000000)">
                <g id="Menu---maximized">
                    <g id="Knob-Copy-3" transform="translate(0.000000, 340.000000)">
                        <g id="settings" transform="translate(59.000000, 59.000000)">
                            <circle id="Oval" stroke-linecap="round" stroke-linejoin="round" cx="60.5" cy="60.5" r="16.5"></circle>
                            <path d="M101.2,77 C99.7020945,80.3939954 100.420838,84.357973 103.015,87.01 L103.345,87.34 C105.410547,89.4032508 106.571153,92.2029983 106.571153,95.1225 C106.571153,98.0420017 105.410547,100.841749 103.345,102.905 C101.281749,104.970547 98.4820017,106.131153 95.5625,106.131153 C92.6429983,106.131153 89.8432508,104.970547 87.78,102.905 L87.45,102.575 C84.797973,99.9808377 80.8339954,99.2620945 77.44,100.76 C74.1154117,102.184876 71.954426,105.447964 71.94,109.065 L71.94,110 C71.94,116.075132 67.0151322,121 60.94,121 C54.8648678,121 49.94,116.075132 49.94,110 L49.94,109.505 C49.8528613,105.77969 47.4972947,102.486258 44,101.2 C40.6060046,99.7020945 36.642027,100.420838 33.99,103.015 L33.66,103.345 C31.5967492,105.410547 28.7970017,106.571153 25.8775,106.571153 C22.9579983,106.571153 20.1582508,105.410547 18.095,103.345 C16.0294525,101.281749 14.8688468,98.4820017 14.8688468,95.5625 C14.8688468,92.6429983 16.0294525,89.8432508 18.095,87.78 L18.425,87.45 C21.0191623,84.797973 21.7379055,80.8339954 20.24,77.44 C18.8151244,74.1154117 15.5520361,71.954426 11.935,71.94 L11,71.94 C4.92486775,71.94 1.22124533e-15,67.0151322 0,60.94 C-6.10622664e-16,54.8648678 4.92486775,49.94 11,49.94 L11.495,49.94 C15.2203105,49.8528613 18.5137415,47.4972947 19.8,44 C21.2979055,40.6060046 20.5791623,36.642027 17.985,33.99 L17.655,33.66 C15.5894525,31.5967492 14.4288468,28.7970017 14.4288468,25.8775 C14.4288468,22.9579983 15.5894525,20.1582508 17.655,18.095 C19.7182508,16.0294525 22.5179983,14.8688468 25.4375,14.8688468 C28.3570017,14.8688468 31.1567492,16.0294525 33.22,18.095 L33.55,18.425 C36.202027,21.0191623 40.1660046,21.7379055 43.56,20.24 L44,20.24 C47.3245883,18.8151244 49.485574,15.5520361 49.5,11.935 L49.5,11 C49.5,4.92486775 54.4248678,1.22124533e-15 60.5,0 C66.5751322,0 71.5,4.92486775 71.5,11 L71.5,11.495 C71.514426,15.1120361 73.6754117,18.3751244 77,19.8 C80.3939954,21.2979055 84.357973,20.5791623 87.01,17.985 L87.34,17.655 C89.4032508,15.5894525 92.2029983,14.4288468 95.1225,14.4288468 C98.0420017,14.4288468 100.841749,15.5894525 102.905,17.655 C104.970547,19.7182508 106.131153,22.5179983 106.131153,25.4375 C106.131153,28.3570017 104.970547,31.1567492 102.905,33.22 L102.575,33.55 C99.9808377,36.202027 99.2620945,40.1660046 100.76,43.56 L100.76,44 C102.184876,47.3245883 105.447964,49.485574 109.065,49.5 L110,49.5 C116.075132,49.5 121,54.4248678 121,60.5 C121,66.5751322 116.075132,71.5 110,71.5 L109.505,71.5 C105.887964,71.514426 102.624876,73.6754117 101.2,77 Z" id="Shape"></path>
                        </g>
                    </g>
                </g>
            </g>
        </g>
    </g>
</svg>