<?xml version="1.0" encoding="UTF-8"?>
<svg width="125px" height="125px" viewBox="0 0 125 125" version="1.1" xmlns="http://www.w3.org/2000/svg" xmlns:xlink="http://www.w3.org/1999/xlink">
    <!-- Generator: Sketch 47.1 (45422) - http://www.bohemiancoding.com/sketch -->
    <title>smile copy</title>
    <desc>Created with Sketch.</desc>
    <defs>
        <polygon id="path-1" points="0.0197368421 0.278983666 0.0197368421 124.137604 124.71875 124.137604 124.71875 0.278983666"></polygon>
    </defs>
    <g id="Client" stroke="none" stroke-width="1" fill="none" fill-rule="evenodd">
        <g id="voortgang_grafiek_1b" transform="translate(-433.000000, -1264.000000)">
            <g id="Group-5" transform="translate(0.000000, 1227.000000)">
                <g id="Group-11">
                    <g id="Group-12" transform="translate(70.000000, 37.000000)">
                        <g id="smile-copy" transform="translate(363.000000, 0.000000)">
                            <g id="Group-3">
                                <mask id="mask-2" fill="white">
                                    <use xlink:href="#path-1"></use>
                                </mask>
                                <g id="Clip-2"></g>
                                <path d="M121.71875,62.2091107 C121.71875,29.6675556 95.1473113,3.27898367 62.3598684,3.27898367 C29.571584,3.27898367 3,29.6674115 3,62.2091107 C3,94.7494168 29.5718262,121.137604 62.3598684,121.137604 C95.1470691,121.137604 121.71875,94.7492726 121.71875,62.2091107 Z" id="Fill-1" stroke="#04C7D5" stroke-width="6" mask="url(#mask-2)"></path>
                            </g>
                            <path d="M54,39.0001679 C54,44.5221926 49.523536,49 43.9998321,49 C38.4778074,49 34,44.5221926 34,39.0001679 C34,33.4767998 38.4778074,29 43.9998321,29 C49.523536,29 54,33.4767998 54,39.0001679 Z" id="Fill-4" fill="#04C7D5"></path>
                            <path d="M91,39.0001679 C91,44.5221926 86.5221926,49 80.9998321,49 C75.4778074,49 71,44.5221926 71,39.0001679 C71,33.4767998 75.4778074,29 80.9998321,29 C86.5221926,29 91,33.4767998 91,39.0001679 Z" id="Fill-5" fill="#04C7D5"></path>
                            <path d="M61.6722496,95.0651561 C51.0267413,94.8551791 41.4956832,90.5841079 34.0947562,82.7477126 C31.9330961,80.4570841 28.531192,83.9502184 30.6902783,86.2359024 C38.9569632,94.9893402 49.79261,99.7650814 61.6722496,99.9994514 C64.7791332,100.059774 64.7726987,95.1258088 61.6722496,95.0651561 Z" id="Fill-6" fill="#04C7D5"></path>
                            <path d="M32.4706774,28.3879139 C37.9267109,23.9987829 44.195018,21.168733 51.1587789,19.7861207 C54.3849878,19.1453979 53.0149165,14.4210088 49.7979301,15.0591124 C41.9494809,16.6195031 34.9819626,19.9933652 28.8560937,24.9233619 C26.3277297,26.958156 29.9634912,30.4060106 32.4706774,28.3879139 Z" id="Fill-7" fill="#04C7D5"></path>
                            <path d="M75.6511543,17.8437505 C81.941431,19.8813978 87.3905386,23.3670364 91.9754008,28.2598088 C94.101558,30.5285464 97.4444233,27.0661149 95.3204789,24.8009727 C90.177366,19.3133146 83.9566335,15.4089678 76.909589,13.1245409 C73.9890469,12.1786071 72.7508433,16.9014121 75.6511543,17.8437505 Z" id="Fill-8" fill="#04C7D5"></path>
                        </g>
                    </g>
                </g>
            </g>
        </g>
    </g>
</svg>